/* XPM */
const char * bullet_xpm[] = {
"8 14 3 1",
" 	c #050505",
".	c #8B7300",
"+	c none",
"  ....  ",
"  ....  ",
"..++....",
"..++....",
"..++....",
"..++....",
"..++....",
"..++....",
"..++....",
"..++....",
"        ",
"        ",
"..++....",
"..++...."};
