/* XPM */
const char * menu_arrow_xpm[] = {
"16 12 2 1",
" 	c none",
".	c #FFFFFF",
"    ..          ",
"    ..          ",
"    ....        ",
"    ....        ",
"..........      ",
"..........      ",
"............    ",
"............    ",
"..............  ",
"..............  ",
"................",
"................"};
