/* XPM */
const char * perfect_xpm[] = {
"146 66 3 1",
" 	c #00FFFF",
".	c #FFFFFF",
"+	c #000000",
"    ..........................................................................................................................................    ",
"    ..........................................................................................................................................    ",
"  ....++++++++++++++++++++++++++++++++++++++++++++++++++++++++++++++++++++++++++++++++++++++++++++++++++++++++++++++++++++++++++++++++++++++....  ",
"  ....++++++++++++++++++++++++++++++++++++++++++++++++++++++++++++++++++++++++++++++++++++++++++++++++++++++++++++++++++++++++++++++++++++++....  ",
"....++++++++++++++++++++++++++++++++++++++++++++++++++++++++++++++++++++++++++++++++++++++++++++++++++++++++++++++++++++++++++++++++++++++++++....",
"....++++++++++++++++++++++++++++++++++++++++++++++++++++++++++++++++++++++++++++++++++++++++++++++++++++++++++++++++++++++++++++++++++++++++++....",
"..++++++++++++++++++++++++++++++++++++++++++++++++++++++++++++++++++++++++++++++++++++++++++++++++++++++++++++++++++++++++++++++++++++++++++++++..",
"..++++++++++++++++++++++++++++++++++++++++++++++++++++++++++++++++++++++++++++++++++++++++++++++++++++++++++++++++++++++++++++++++++++++++++++++..",
"..++++++++++++++++++++++++++++++++++++++++++++++++++++++++++++++++++++++++++++++++++++++++++++++++++++++++++++++++++++++++++++++++++++++++++++++..",
"..++++++++++++++++++++++++++++++++++++++++++++++++++++++++++++++++++++++++++++++++++++++++++++++++++++++++++++++++++++++++++++++++++++++++++++++..",
"..++++++++............++++..............++............++++..............++..............++++++........++++++............++++....++++....++++++++..",
"..++++++++............++++..............++............++++..............++..............++++++........++++++............++++....++++....++++++++..",
"..++++++++....++++++....++....++++++++++++....++++++....++....++++++++++++....++++++++++++++....++++....++++++++....++++++++....++++....++++++++..",
"..++++++++....++++++....++....++++++++++++....++++++....++....++++++++++++....++++++++++++++....++++....++++++++....++++++++....++++....++++++++..",
"..++++++++....++++++....++....++++++++++++....++++++....++....++++++++++++....++++++++++++....++++++++++++++++++....++++++++....++++....++++++++..",
"..++++++++....++++++....++....++++++++++++....++++++....++....++++++++++++....++++++++++++....++++++++++++++++++....++++++++....++++....++++++++..",
"..++++++++....++++++....++............++++....++++......++............++++............++++....++++++++++++++++++....++++++++..++++++..++++++++++..",
"..++++++++....++++++....++............++++....++++......++............++++............++++....++++++++++++++++++....++++++++..++++++..++++++++++..",
"..++++++++............++++....++++++++++++..........++++++....++++++++++++....++++++++++++....++++++++++++++++++....++++++++++++++++++++++++++++..",
"..++++++++............++++....++++++++++++..........++++++....++++++++++++....++++++++++++....++++++++++++++++++....++++++++++++++++++++++++++++..",
"..++++++++....++++++++++++....++++++++++++....++......++++....++++++++++++....++++++++++++++....++++....++++++++....++++++....++++....++++++++++..",
"..++++++++....++++++++++++....++++++++++++....++......++++....++++++++++++....++++++++++++++....++++....++++++++....++++++....++++....++++++++++..",
"..++++++++....++++++++++++..............++....++++......++....++++++++++++..............++++++........++++++++++....++++++....++++....++++++++++..",
"..++++++++....++++++++++++..............++....++++......++....++++++++++++..............++++++........++++++++++....++++++....++++....++++++++++..",
"..++++++++++++++++++++++++++++++++++++++++++++++++++++++++++++++++++++++++++++++++++++++++++++++++++++++++++++++++++++++++++++++++++++++++++++++..",
"..++++++++++++++++++++++++++++++++++++++++++++++++++++++++++++++++++++++++++++++++++++++++++++++++++++++++++++++++++++++++++++++++++++++++++++++..",
"..++++++++++++++++++++++++++++++++++++++++++++++++++++++++++++++++++++++++++++++++++++++++++++++++++++++++++++++++++++++++++++++++++++++++++++++..",
"..++++++++++++++++++++++++++++++++++++++++++++++++++++++++++++++++++++++++++++++++++++++++++++++++++++++++++++++++++++++++++++++++++++++++++++++..",
"..++++++++++++++++++++++++++++++++++++++++++++++++++++++++++++++++++++++++++++++++++++++++++++++++++++++++++++++++++++++++++++++++++++++++++++++..",
"..++++++++++++++++++++++++++++++++++++++++++++++++++++++++++++++++++++++++++++++++++++++++++++++++++++++++++++++++++++++++++++++++++++++++++++++..",
"..++++++++++++++++++++++++++++++++++++++++++++++++++++++++++++++++++++++++++++++++++++++++++++++++++++++++++++++++++++++++++++++++++++++++++++++..",
"..++++++++++++++++++++++++++++++++++++++++++++++++++++++++++++++++++++++++++++++++++++++++++++++++++++++++++++++++++++++++++++++++++++++++++++++..",
"..++++++++++++++++++++++++++++++++++++++++++++++++++++++++++++++++++++++++++++++++++++++++++++++++++++++++++++++++++++++++++++++++++++++++++++++..",
"..++++++++++++++++++++++++++++++++++++++++++++++++++++++++++++++++++++++++++++++++++++++++++++++++++++++++++++++++++++++++++++++++++++++++++++++..",
"..++++++++++++++++++++++++++++++++++++++++++++++++++++++++++++++++++++++++++++++++++++++++++++++++++++++++++++++++++++++++++++++++++++++++++++++..",
"..++++++++++++++++++++++++++++++++++++++++++++++++++++++++++++++++++++++++++++++++++++++++++++++++++++++++++++++++++++++++++++++++++++++++++++++..",
"..++++++++++++++++++++++++++++++++++++++++++++++++++++++++++++++++++++++++++++++++++++++++++++++++++++++++++++++++++++++++++++++++++++++++++++++..",
"..++++++++++++++++++++++++++++++++++++++++++++++++++++++++++++++++++++++++++++++++++++++++++++++++++++++++++++++++++++++++++++++++++++++++++++++..",
"..++++++++++++++++++++++++++++++++++++++++++++++++++++++++++++++++++++++++++++++++++++++++++++++++++++++++++++++++++++++++++++++++++++++++++++++..",
"..++++++++++++++++++++++++++++++++++++++++++++++++++++++++++++++++++++++++++++++++++++++++++++++++++++++++++++++++++++++++++++++++++++++++++++++..",
"..++++++++++++++++++++++++++++++++++++++++++++++++++++++++++++++++++++++++++++++++++++++++++++++++++++++++++++++++++++++++++++++++++++++++++++++..",
"..++++++++++++++++++++++++++++++++++++++++++++++++++++++++++++++++++++++++++++++++++++++++++++++++++++++++++++++++++++++++++++++++++++++++++++++..",
"..++++++++++++++++++++++++++++++....++++++++++......++++++++++......++++++++++......++++++++++......++++++++++++++++++++++++++++++++++++++++++++..",
"..++++++++++++++++++++++++++++++....++++++++++......++++++++++......++++++++++......++++++++++......++++++++++++++++++++++++++++++++++++++++++++..",
"..++++++++++++++++++++++++++++......++++++++..++++....++++++..++++....++++++..++++....++++++..++++....++++++++++++++++++++++++++++++++++++++++++..",
"..++++++++++++++++++++++++++++......++++++++..++++....++++++..++++....++++++..++++....++++++..++++....++++++++++++++++++++++++++++++++++++++++++..",
"..++++++++++++++++++++++++++++++....++++++....++++++....++....++++++....++....++++++....++....++++++....++++++++++++++++++++++++++++++++++++++++..",
"..++++++++++++++++++++++++++++++....++++++....++++++....++....++++++....++....++++++....++....++++++....++++++++++++++++++++++++++++++++++++++++..",
"..++++++++++++++++++++++++++++++....++++++....++++++....++....++++++....++....++++++....++....++++++....++++++++++++++++++++++++++++++++++++++++..",
"..++++++++++++++++++++++++++++++....++++++....++++++....++....++++++....++....++++++....++....++++++....++++++++++++++++++++++++++++++++++++++++..",
"..++++++++++++++++++++++++++++++....++++++....++++++....++....++++++....++....++++++....++....++++++....++++++++++++++++++++++++++++++++++++++++..",
"..++++++++++++++++++++++++++++++....++++++....++++++....++....++++++....++....++++++....++....++++++....++++++++++++++++++++++++++++++++++++++++..",
"..++++++++++++++++++++++++++++++....++++++++....++++..++++++....++++..++++++....++++..++++++....++++..++++++++++++++++++++++++++++++++++++++++++..",
"..++++++++++++++++++++++++++++++....++++++++....++++..++++++....++++..++++++....++++..++++++....++++..++++++++++++++++++++++++++++++++++++++++++..",
"..++++++++++++++++++++++++++............++++++......++++++++++......++++++++++......++++++++++......++++++++++++++++++++++++++++++++++++++++++++..",
"..++++++++++++++++++++++++++............++++++......++++++++++......++++++++++......++++++++++......++++++++++++++++++++++++++++++++++++++++++++..",
"..++++++++++++++++++++++++++++++++++++++++++++++++++++++++++++++++++++++++++++++++++++++++++++++++++++++++++++++++++++++++++++++++++++++++++++++..",
"..++++++++++++++++++++++++++++++++++++++++++++++++++++++++++++++++++++++++++++++++++++++++++++++++++++++++++++++++++++++++++++++++++++++++++++++..",
"..++++++++++++++++++++++++++++++++++++++++++++++++++++++++++++++++++++++++++++++++++++++++++++++++++++++++++++++++++++++++++++++++++++++++++++++..",
"..++++++++++++++++++++++++++++++++++++++++++++++++++++++++++++++++++++++++++++++++++++++++++++++++++++++++++++++++++++++++++++++++++++++++++++++..",
"....++++++++++++++++++++++++++++++++++++++++++++++++++++++++++++++++++++++++++++++++++++++++++++++++++++++++++++++++++++++++++++++++++++++++++....",
"....++++++++++++++++++++++++++++++++++++++++++++++++++++++++++++++++++++++++++++++++++++++++++++++++++++++++++++++++++++++++++++++++++++++++++....",
"  ....++++++++++++++++++++++++++++++++++++++++++++++++++++++++++++++++++++++++++++++++++++++++++++++++++++++++++++++++++++++++++++++++++++++....  ",
"  ....++++++++++++++++++++++++++++++++++++++++++++++++++++++++++++++++++++++++++++++++++++++++++++++++++++++++++++++++++++++++++++++++++++++....  ",
"    ..........................................................................................................................................    ",
"    ..........................................................................................................................................    "};
