/* XPM */
const char * round_box_xpm[] = {
"98 66 3 1",
" 	c none",
".	c #FFFFFF",
"+	c #000000",
"    ..........................................................................................    ",
"    ..........................................................................................    ",
"  ....++++++++++++++++++++++++++++++++++++++++++++++++++++++++++++++++++++++++++++++++++++++....  ",
"  ....++++++++++++++++++++++++++++++++++++++++++++++++++++++++++++++++++++++++++++++++++++++....  ",
"....++++++++++++++++++++++++++++++++++++++++++++++++++++++++++++++++++++++++++++++++++++++++++....",
"....++++++++++++++++++++++++++++++++++++++++++++++++++++++++++++++++++++++++++++++++++++++++++....",
"..++++++++++++++++++++++++++++++++++++++++++++++++++++++++++++++++++++++++++++++++++++++++++++++..",
"..++++++++++++++++++++++++++++++++++++++++++++++++++++++++++++++++++++++++++++++++++++++++++++++..",
"..++++++++++++++++++++++++++++++++++++++++++++++++++++++++++++++++++++++++++++++++++++++++++++++..",
"..++++++++++++++++++++++++++++++++++++++++++++++++++++++++++++++++++++++++++++++++++++++++++++++..",
"..++++++++............++++++..........++++....++++++....++....++++++....++..........++++++++++++..",
"..++++++++............++++++..........++++....++++++....++....++++++....++..........++++++++++++..",
"..++++++++....++++++....++....++++++....++....++++++....++......++++....++....++++....++++++++++..",
"..++++++++....++++++....++....++++++....++....++++++....++......++++....++....++++....++++++++++..",
"..++++++++....++++++....++....++++++....++....++++++....++........++....++....++++++....++++++++..",
"..++++++++....++++++....++....++++++....++....++++++....++........++....++....++++++....++++++++..",
"..++++++++....++++......++....++++++....++....++++++....++..............++....++++++....++++++++..",
"..++++++++....++++......++....++++++....++....++++++....++..............++....++++++....++++++++..",
"..++++++++..........++++++....++++++....++....++++++....++....++........++....++++++....++++++++..",
"..++++++++..........++++++....++++++....++....++++++....++....++........++....++++++....++++++++..",
"..++++++++....++......++++....++++++....++....++++++....++....++++......++....++++....++++++++++..",
"..++++++++....++......++++....++++++....++....++++++....++....++++......++....++++....++++++++++..",
"..++++++++....++++......++++..........++++++..........++++....++++++....++..........++++++++++++..",
"..++++++++....++++......++++..........++++++..........++++....++++++....++..........++++++++++++..",
"..++++++++++++++++++++++++++++++++++++++++++++++++++++++++++++++++++++++++++++++++++++++++++++++..",
"..++++++++++++++++++++++++++++++++++++++++++++++++++++++++++++++++++++++++++++++++++++++++++++++..",
"..++++++++++++++++++++++++++++++++++++++++++++++++++++++++++++++++++++++++++++++++++++++++++++++..",
"..++++++++++++++++++++++++++++++++++++++++++++++++++++++++++++++++++++++++++++++++++++++++++++++..",
"..++++++++++++++++++++++++++++++++++++++++++++++++++++++++++++++++++++++++++++++++++++++++++++++..",
"..++++++++++++++++++++++++++++++++++++++++++++++++++++++++++++++++++++++++++++++++++++++++++++++..",
"..++++++++++++++++++++++++++++++++++++++++++++++++++++++++++++++++++++++++++++++++++++++++++++++..",
"..++++++++++++++++++++++++++++++++++++++++++++++++++++++++++++++++++++++++++++++++++++++++++++++..",
"..++++++++++++++++++++++++++++++++++++++++++++++++++++++++++++++++++++++++++++++++++++++++++++++..",
"..++++++++++++++++++++++++++++++++++++++++++++++++++++++++++++++++++++++++++++++++++++++++++++++..",
"..++++++++++++++++++++++++++++++++++++++++++++++++++++++++++++++++++++++++++++++++++++++++++++++..",
"..++++++++++++++++++++++++++++++++++++++++++++++++++++++++++++++++++++++++++++++++++++++++++++++..",
"..++++++++++++++++++++++++++++++++++++++++++++++++++++++++++++++++++++++++++++++++++++++++++++++..",
"..++++++++++++++++++++++++++++++++++++++++++++++++++++++++++++++++++++++++++++++++++++++++++++++..",
"..++++++++++++++++++++++++++++++++++++++++++++++++++++++++++++++++++++++++++++++++++++++++++++++..",
"..++++++++++++++++++++++++++++++++++++++++++++++++++++++++++++++++++++++++++++++++++++++++++++++..",
"..++++++++++++++++++++++++++++++++++++++++++++++++++++++++++++++++++++++++++++++++++++++++++++++..",
"..++++++++++++++++++++++++++++++++++++++++++++++++++++++++++++++++++++++++++++++++++++++++++++++..",
"..++++++++++++++++++++++++++++++++++++++++++++++++++++++++++++++++++++++++++++++++++++++++++++++..",
"..++++++++++++++++++++++++++++++++++++++++++++++++++++++++++++++++++++++++++++++++++++++++++++++..",
"..++++++++++++++++++++++++++++++++++++++++++++++++++++++++++++++++++++++++++++++++++++++++++++++..",
"..++++++++++++++++++++++++++++++++++++++++++++++++++++++++++++++++++++++++++++++++++++++++++++++..",
"..++++++++++++++++++++++++++++++++++++++++++++++++++++++++++++++++++++++++++++++++++++++++++++++..",
"..++++++++++++++++++++++++++++++++++++++++++++++++++++++++++++++++++++++++++++++++++++++++++++++..",
"..++++++++++++++++++++++++++++++++++++++++++++++++++++++++++++++++++++++++++++++++++++++++++++++..",
"..++++++++++++++++++++++++++++++++++++++++++++++++++++++++++++++++++++++++++++++++++++++++++++++..",
"..++++++++++++++++++++++++++++++++++++++++++++++++++++++++++++++++++++++++++++++++++++++++++++++..",
"..++++++++++++++++++++++++++++++++++++++++++++++++++++++++++++++++++++++++++++++++++++++++++++++..",
"..++++++++++++++++++++++++++++++++++++++++++++++++++++++++++++++++++++++++++++++++++++++++++++++..",
"..++++++++++++++++++++++++++++++++++++++++++++++++++++++++++++++++++++++++++++++++++++++++++++++..",
"..++++++++++++++++++++++++++++++++++++++++++++++++++++++++++++++++++++++++++++++++++++++++++++++..",
"..++++++++++++++++++++++++++++++++++++++++++++++++++++++++++++++++++++++++++++++++++++++++++++++..",
"..++++++++++++++++++++++++++++++++++++++++++++++++++++++++++++++++++++++++++++++++++++++++++++++..",
"..++++++++++++++++++++++++++++++++++++++++++++++++++++++++++++++++++++++++++++++++++++++++++++++..",
"..++++++++++++++++++++++++++++++++++++++++++++++++++++++++++++++++++++++++++++++++++++++++++++++..",
"..++++++++++++++++++++++++++++++++++++++++++++++++++++++++++++++++++++++++++++++++++++++++++++++..",
"....++++++++++++++++++++++++++++++++++++++++++++++++++++++++++++++++++++++++++++++++++++++++++....",
"....++++++++++++++++++++++++++++++++++++++++++++++++++++++++++++++++++++++++++++++++++++++++++....",
"  ....++++++++++++++++++++++++++++++++++++++++++++++++++++++++++++++++++++++++++++++++++++++....  ",
"  ....++++++++++++++++++++++++++++++++++++++++++++++++++++++++++++++++++++++++++++++++++++++....  ",
"    ..........................................................................................    ",
"    ..........................................................................................    "};
